<svg id="Layer_1" data-name="Layer 1" xmlns="http://www.w3.org/2000/svg" xmlns:xlink="http://www.w3.org/1999/xlink" viewBox="0 0 16 16"><defs><style>.cls-1{fill:url(#linear-gradient);}</style><linearGradient id="linear-gradient" x1="3.55" y1="-1.79" x2="11.33" y2="15.34" gradientUnits="userSpaceOnUse"><stop offset="0.5" stop-color="#ff3124"/><stop offset="1" stop-color="#fbb03b"/></linearGradient></defs><path class="cls-1" d="M11.21,3.25a2.54,2.54,0,0,0-.12-.61A1.86,1.86,0,0,0,9.57,1.46a1.71,1.71,0,0,0-1.46.6,2.65,2.65,0,0,0-.46,1.82v8.36a2.11,2.11,0,0,1-.26,1.25,1,1,0,0,1-.83.42,1.07,1.07,0,0,1-.83-.41,2.09,2.09,0,0,1-.27-1.26V3.9a2.89,2.89,0,0,1,.19-1.28A3.07,3.07,0,0,1,7,1.39c-.07.05-.37,0-.48,0a2.15,2.15,0,0,0-.5.12,2,2,0,0,0-.85.6,3.42,3.42,0,0,0-.43,2.09v7.7a3.49,3.49,0,0,0,.42,2,1.73,1.73,0,0,0,1.22.7,1.7,1.7,0,0,0,1.32-.48,3.34,3.34,0,0,0,.64-2.43l0-3.64a.44.44,0,0,1,0-.16.42.42,0,0,1,.17-.18,1.7,1.7,0,0,1,2,.13c0,1,0,2,0,3.05a7.2,7.2,0,0,1-.21,2.36,2.38,2.38,0,0,1-1.52,1.3,1.89,1.89,0,0,0,2.18-1A3.64,3.64,0,0,0,11.23,12V3.92C11.23,3.7,11.23,3.47,11.21,3.25ZM8.85,6.86a3.56,3.56,0,0,0-.5.18c0-1.14,0-2.28,0-3.43a2,2,0,0,1,.11-.81,1.09,1.09,0,0,1,2.09.45V7A2.36,2.36,0,0,0,8.85,6.86Z"/></svg>