<svg id="Layer_1" data-name="Layer 1" xmlns="http://www.w3.org/2000/svg" viewBox="0 0 16 16"><defs><style>.cls-1{fill:#fff;}</style></defs><path class="cls-1" d="M11.23,3.25A1.79,1.79,0,0,0,8,2.17a4.07,4.07,0,0,0-.34,2.24c0,.86,0,1.72,0,2.57,0,1.72,0,3.43,0,5.15a2.1,2.1,0,0,1-.37,1.48,1.07,1.07,0,0,1-1.54-.07,2.07,2.07,0,0,1-.29-1.3V3.83a3,3,0,0,1,.15-1.15A3,3,0,0,1,7,1.39,2,2,0,0,0,4.92,2.61a3.77,3.77,0,0,0-.15,1.3V12a3.43,3.43,0,0,0,.33,1.8,1.7,1.7,0,0,0,2.56.43A2.16,2.16,0,0,0,7.91,14v0a3.17,3.17,0,0,0,.44-1.71c0-.91,0-1.84,0-2.76V7.85l.07,0a1.9,1.9,0,0,1,.65-.31,1.47,1.47,0,0,1,1.37.31l.1.05v3.9a2.71,2.71,0,0,1-.48,2,2.53,2.53,0,0,1-.84.6,1.42,1.42,0,0,0-.44.23,3,3,0,0,0,.6,0,2,2,0,0,0,1.85-2.17c0-1.74,0-3.48,0-5.22ZM8.85,6.86a3.56,3.56,0,0,0-.5.18c0-1.14,0-2.28,0-3.43a2,2,0,0,1,.11-.81,1.09,1.09,0,0,1,2.09.45V7A2.36,2.36,0,0,0,8.85,6.86Z"/><path class="cls-1" d="M7.65,3.41V3.25h0a1.82,1.82,0,0,1,.25-.93A2.31,2.31,0,0,0,7.65,3.41Z"/><path class="cls-1" d="M7.65,3.41V3.25h0a1.82,1.82,0,0,1,.25-.93A2.31,2.31,0,0,0,7.65,3.41Z"/></svg>